<?xml version="1.0" encoding="UTF-8" standalone="no"?>
<!DOCTYPE svg PUBLIC "-//W3C//DTD SVG 1.1//EN"
 "http://www.w3.org/Graphics/SVG/1.1/DTD/svg11.dtd">
<!-- Generated by graphviz version 11.0.0 (0)
 -->
<!-- Pages: 1 -->
<svg width="344pt" height="247pt"
 viewBox="0.00 0.00 344.10 247.13" xmlns="http://www.w3.org/2000/svg" xmlns:xlink="http://www.w3.org/1999/xlink">
<g id="graph0" class="graph" transform="scale(1 1) rotate(0) translate(4 243.13)">
<polygon fill="white" stroke="none" points="-4,4 -4,-243.13 340.1,-243.13 340.1,4 -4,4"/>
<g id="clust1" class="cluster">
<title>cluster69</title>
<path fill="none" stroke="black" d="M48.01,-8C48.01,-8 278.01,-8 278.01,-8 284.01,-8 290.01,-14 290.01,-20 290.01,-20 290.01,-117.82 290.01,-117.82 290.01,-123.82 284.01,-129.82 278.01,-129.82 278.01,-129.82 48.01,-129.82 48.01,-129.82 42.01,-129.82 36.01,-123.82 36.01,-117.82 36.01,-117.82 36.01,-20 36.01,-20 36.01,-14 42.01,-8 48.01,-8"/>
<text text-anchor="middle" x="275.26" y="-15.2" font-family="Times New Roman,serif" font-size="14.00">69</text>
</g>
<!-- l_seasonal -->
<g id="node1" class="node">
<title>l_seasonal</title>
<ellipse fill="none" stroke="black" cx="285.01" cy="-198.48" rx="51.09" ry="40.66"/>
<text text-anchor="middle" x="285.01" y="-209.93" font-family="Times New Roman,serif" font-size="14.00">l_seasonal</text>
<text text-anchor="middle" x="285.01" y="-193.43" font-family="Times New Roman,serif" font-size="14.00">~</text>
<text text-anchor="middle" x="285.01" y="-176.93" font-family="Times New Roman,serif" font-size="14.00">Gamma</text>
</g>
<!-- z_pred -->
<g id="node4" class="node">
<title>z_pred</title>
<ellipse fill="none" stroke="black" cx="99.01" cy="-81.16" rx="54.8" ry="40.66"/>
<text text-anchor="middle" x="99.01" y="-92.61" font-family="Times New Roman,serif" font-size="14.00">z_pred</text>
<text text-anchor="middle" x="99.01" y="-76.11" font-family="Times New Roman,serif" font-size="14.00">~</text>
<text text-anchor="middle" x="99.01" y="-59.61" font-family="Times New Roman,serif" font-size="14.00">MvNormal</text>
</g>
<!-- l_seasonal&#45;&gt;z_pred -->
<g id="edge4" class="edge">
<title>l_seasonal&#45;&gt;z_pred</title>
<path fill="none" stroke="black" d="M246.84,-170.94C239.71,-166.36 232.23,-161.8 225.01,-157.82 198.54,-143.21 189.07,-145.16 163.01,-129.82 156.98,-126.27 150.84,-122.26 144.86,-118.12"/>
<polygon fill="black" stroke="black" points="147.05,-115.38 136.87,-112.42 142.98,-121.08 147.05,-115.38"/>
</g>
<!-- z_obs -->
<g id="node5" class="node">
<title>z_obs</title>
<ellipse fill="lightgrey" stroke="black" cx="227.01" cy="-81.16" rx="54.8" ry="40.66"/>
<text text-anchor="middle" x="227.01" y="-92.61" font-family="Times New Roman,serif" font-size="14.00">z_obs</text>
<text text-anchor="middle" x="227.01" y="-76.11" font-family="Times New Roman,serif" font-size="14.00">~</text>
<text text-anchor="middle" x="227.01" y="-59.61" font-family="Times New Roman,serif" font-size="14.00">MvNormal</text>
</g>
<!-- l_seasonal&#45;&gt;z_obs -->
<g id="edge1" class="edge">
<title>l_seasonal&#45;&gt;z_obs</title>
<path fill="none" stroke="black" d="M266.34,-160.35C261.42,-150.58 256.05,-139.89 250.9,-129.65"/>
<polygon fill="black" stroke="black" points="254.15,-128.32 246.53,-120.96 247.89,-131.46 254.15,-128.32"/>
</g>
<!-- slope -->
<g id="node2" class="node">
<title>slope</title>
<ellipse fill="none" stroke="black" cx="41.01" cy="-198.48" rx="41.01" ry="40.66"/>
<text text-anchor="middle" x="41.01" y="-209.93" font-family="Times New Roman,serif" font-size="14.00">slope</text>
<text text-anchor="middle" x="41.01" y="-193.43" font-family="Times New Roman,serif" font-size="14.00">~</text>
<text text-anchor="middle" x="41.01" y="-176.93" font-family="Times New Roman,serif" font-size="14.00">Normal</text>
</g>
<!-- slope&#45;&gt;z_pred -->
<g id="edge5" class="edge">
<title>slope&#45;&gt;z_pred</title>
<path fill="none" stroke="black" d="M59.05,-161.62C64.14,-151.5 69.76,-140.33 75.13,-129.64"/>
<polygon fill="black" stroke="black" points="78.14,-131.44 79.51,-120.94 71.89,-128.3 78.14,-131.44"/>
</g>
<!-- slope&#45;&gt;z_obs -->
<g id="edge2" class="edge">
<title>slope&#45;&gt;z_obs</title>
<path fill="none" stroke="black" d="M71.46,-171C77.69,-166.25 84.38,-161.62 91.01,-157.82 120.8,-140.74 132.97,-146.44 163.01,-129.82 169.14,-126.43 175.34,-122.52 181.35,-118.43"/>
<polygon fill="black" stroke="black" points="183.2,-121.4 189.35,-112.77 179.16,-115.68 183.2,-121.4"/>
</g>
<!-- noise -->
<g id="node3" class="node">
<title>noise</title>
<ellipse fill="none" stroke="black" cx="158.01" cy="-198.48" rx="57.98" ry="40.66"/>
<text text-anchor="middle" x="158.01" y="-209.93" font-family="Times New Roman,serif" font-size="14.00">noise</text>
<text text-anchor="middle" x="158.01" y="-193.43" font-family="Times New Roman,serif" font-size="14.00">~</text>
<text text-anchor="middle" x="158.01" y="-176.93" font-family="Times New Roman,serif" font-size="14.00">HalfNormal</text>
</g>
<!-- noise&#45;&gt;z_pred -->
<g id="edge6" class="edge">
<title>noise&#45;&gt;z_pred</title>
<path fill="none" stroke="black" d="M138.69,-159.72C133.8,-150.16 128.49,-139.78 123.39,-129.8"/>
<polygon fill="black" stroke="black" points="126.53,-128.26 118.86,-120.96 120.3,-131.45 126.53,-128.26"/>
</g>
<!-- noise&#45;&gt;z_obs -->
<g id="edge3" class="edge">
<title>noise&#45;&gt;z_obs</title>
<path fill="none" stroke="black" d="M180.03,-160.67C186.19,-150.38 192.97,-139.06 199.41,-128.29"/>
<polygon fill="black" stroke="black" points="202.29,-130.29 204.42,-119.91 196.28,-126.7 202.29,-130.29"/>
</g>
</g>
</svg>
