<?xml version="1.0" encoding="UTF-8" standalone="no"?>
<!DOCTYPE svg PUBLIC "-//W3C//DTD SVG 1.1//EN"
 "http://www.w3.org/Graphics/SVG/1.1/DTD/svg11.dtd">
<!-- Generated by graphviz version 11.0.0 (0)
 -->
<!-- Pages: 1 -->
<svg width="278pt" height="247pt"
 viewBox="0.00 0.00 278.00 247.13" xmlns="http://www.w3.org/2000/svg" xmlns:xlink="http://www.w3.org/1999/xlink">
<g id="graph0" class="graph" transform="scale(1 1) rotate(0) translate(4 243.13)">
<polygon fill="white" stroke="none" points="-4,4 -4,-243.13 274,-243.13 274,4 -4,4"/>
<g id="clust1" class="cluster">
<title>cluster170</title>
<path fill="none" stroke="black" d="M20,-8C20,-8 250,-8 250,-8 256,-8 262,-14 262,-20 262,-20 262,-117.82 262,-117.82 262,-123.82 256,-129.82 250,-129.82 250,-129.82 20,-129.82 20,-129.82 14,-129.82 8,-123.82 8,-117.82 8,-117.82 8,-20 8,-20 8,-14 14,-8 20,-8"/>
<text text-anchor="middle" x="243.88" y="-15.2" font-family="Times New Roman,serif" font-size="14.00">170</text>
</g>
<!-- l_exp -->
<g id="node1" class="node">
<title>l_exp</title>
<ellipse fill="none" stroke="black" cx="75" cy="-198.48" rx="42.6" ry="40.66"/>
<text text-anchor="middle" x="75" y="-209.93" font-family="Times New Roman,serif" font-size="14.00">l_exp</text>
<text text-anchor="middle" x="75" y="-193.43" font-family="Times New Roman,serif" font-size="14.00">~</text>
<text text-anchor="middle" x="75" y="-176.93" font-family="Times New Roman,serif" font-size="14.00">Gamma</text>
</g>
<!-- z_obs -->
<g id="node3" class="node">
<title>z_obs</title>
<ellipse fill="lightgrey" stroke="black" cx="71" cy="-81.16" rx="54.8" ry="40.66"/>
<text text-anchor="middle" x="71" y="-92.61" font-family="Times New Roman,serif" font-size="14.00">z_obs</text>
<text text-anchor="middle" x="71" y="-76.11" font-family="Times New Roman,serif" font-size="14.00">~</text>
<text text-anchor="middle" x="71" y="-59.61" font-family="Times New Roman,serif" font-size="14.00">MvNormal</text>
</g>
<!-- l_exp&#45;&gt;z_obs -->
<g id="edge1" class="edge">
<title>l_exp&#45;&gt;z_obs</title>
<path fill="none" stroke="black" d="M73.61,-157.47C73.34,-149.69 73.06,-141.43 72.78,-133.34"/>
<polygon fill="black" stroke="black" points="76.28,-133.48 72.44,-123.61 69.29,-133.72 76.28,-133.48"/>
</g>
<!-- z_pred -->
<g id="node4" class="node">
<title>z_pred</title>
<ellipse fill="none" stroke="black" cx="199" cy="-81.16" rx="54.8" ry="40.66"/>
<text text-anchor="middle" x="199" y="-92.61" font-family="Times New Roman,serif" font-size="14.00">z_pred</text>
<text text-anchor="middle" x="199" y="-76.11" font-family="Times New Roman,serif" font-size="14.00">~</text>
<text text-anchor="middle" x="199" y="-59.61" font-family="Times New Roman,serif" font-size="14.00">MvNormal</text>
</g>
<!-- l_exp&#45;&gt;z_pred -->
<g id="edge3" class="edge">
<title>l_exp&#45;&gt;z_pred</title>
<path fill="none" stroke="black" d="M105.33,-169.27C120.98,-154.71 140.31,-136.73 157.34,-120.9"/>
<polygon fill="black" stroke="black" points="159.44,-123.73 164.38,-114.35 154.68,-118.6 159.44,-123.73"/>
</g>
<!-- noise -->
<g id="node2" class="node">
<title>noise</title>
<ellipse fill="none" stroke="black" cx="196" cy="-198.48" rx="57.98" ry="40.66"/>
<text text-anchor="middle" x="196" y="-209.93" font-family="Times New Roman,serif" font-size="14.00">noise</text>
<text text-anchor="middle" x="196" y="-193.43" font-family="Times New Roman,serif" font-size="14.00">~</text>
<text text-anchor="middle" x="196" y="-176.93" font-family="Times New Roman,serif" font-size="14.00">HalfNormal</text>
</g>
<!-- noise&#45;&gt;z_obs -->
<g id="edge2" class="edge">
<title>noise&#45;&gt;z_obs</title>
<path fill="none" stroke="black" d="M161.51,-165.66C146.5,-151.81 128.76,-135.45 112.99,-120.89"/>
<polygon fill="black" stroke="black" points="115.78,-118.71 106.06,-114.5 111.03,-123.85 115.78,-118.71"/>
</g>
<!-- noise&#45;&gt;z_pred -->
<g id="edge4" class="edge">
<title>noise&#45;&gt;z_pred</title>
<path fill="none" stroke="black" d="M197.04,-157.47C197.24,-149.69 197.46,-141.43 197.67,-133.34"/>
<polygon fill="black" stroke="black" points="201.16,-133.7 197.92,-123.61 194.16,-133.52 201.16,-133.7"/>
</g>
</g>
</svg>
